<svg width="102" height="85" viewBox="0 0 102 85" fill="none" xmlns="http://www.w3.org/2000/svg">
<path d="M4.57821 41.9186H6.8673V46.2137H9.20562V48.3841H13.7838V50.5545H16.0975V56.9514H13.8084V61.2465H11.5439V63.4169H9.23024V67.712H11.5193V65.5873H13.7592V63.4397H16.0975V69.8595H18.4112V72.0071H20.7249V74.1775H25.377V76.325H32.3427V74.2003H34.681V76.325H39.3084V80.6201H37.0439V84.9152H39.333V82.7905H41.6713V80.6201H43.9851V74.1546H41.7206V71.9842H44.0097V69.8367H46.348V59.0761H48.6617V61.2008H53.2891V59.0761H55.6028V63.3484H53.3137V65.5188H51.0246V69.8139H53.3137V67.6891H57.9411V65.5188H60.2794V63.3712H62.6178V65.4959H64.9315V67.6435H69.5589V69.8139H74.2109V71.9614H81.1028V69.8367H83.4411V67.6663H85.7548V61.2008H90.3822V59.0304H92.7206V56.8829H95.0589V54.781H97.3726V52.6335H99.6863V48.3155H102V35.3845H99.7109V33.237H95.0589V31.0894H76.5492V33.2141H69.5835V35.3617H64.9561V31.0894H62.6424V26.7715H64.9315V22.4764H69.5589V24.6011H74.2109V22.4764H71.9218V20.3289H62.6424V22.4536H60.3287V24.6011H55.6767V20.3289H57.9657V16.0338H60.2794V18.1356H64.9069V16.0109H62.6178V13.8634H55.652V15.9881H53.3383V18.1356H51V22.4307H46.3726V24.5783H41.7206V26.7258H39.4069V22.4536H37.0932V18.1356H34.7549V13.8405H32.4411V9.54543H30.1028V7.37503H27.7891V5.20464H25.4508V3.05709H20.8234V0.909546H16.196V3.03425H11.6178V5.20464H9.30408V7.37503H6.96576V9.52258H4.62744V11.693H2.31374V13.8405H3.05176e-05V24.624H2.28912V26.7715H4.62744V33.237H6.94115V37.5321H4.67667V41.85L4.57821 41.9186ZM62.5193 59.0761H60.2056V56.9514H62.5193V59.0761C63.2823 59.0761 64.07 59.0761 64.833 59.0761V54.8039H62.4947V52.6563H60.2056V44.0433H62.5193V41.8729H64.833V39.7025H69.485V37.5549H74.1371V35.3845H78.7645V33.2598H87.9701V35.4074H94.9358V37.5549H97.2249V44.0204H94.9112V52.6335H92.5975V54.8039H87.9455V56.8829H80.9797V59.0304H78.7399V61.178H69.4604V63.3484H80.9797V65.4959H78.7153V67.6206H71.7495V65.4731H67.1221V63.3027H64.8084V61.1551H62.4947V58.9847L62.5193 59.0761ZM13.7838 37.6006V33.2827H11.5193V31.1123H9.18101V28.9647H6.84269V22.4993H4.5536V13.8862H6.8673V11.7387H9.18101V9.59112H11.5193V7.42073H13.7592V5.29603H23.0386V7.44357H25.377V9.61397H27.6907V13.9091H30.0044V16.0795H32.3427V20.3746H34.681V24.6925H36.9701V31.158H34.6564V33.3284H32.3181V35.4759H20.7249V37.6235H23.0632V39.7939H25.3523V41.9643H23.0386V44.1118H20.7249V46.2365H11.4947V44.089H9.20562V37.6235H13.7592L13.7838 37.6006ZM41.6221 46.2365V44.0661H39.2838V41.9186H34.681V37.6006H36.9947V35.4302H39.3084V31.1351H41.6467V29.0104H48.5879V31.158H50.9262V33.3055H53.2399V35.4759H55.529V41.9414H53.2153V44.089H50.9016V46.2365H48.5632V48.3612H46.2495V46.2365H41.6221ZM36.9701 50.5316H39.3084V52.702H43.9112V54.8267H36.9701V52.6792H34.6318V50.5316H32.3181V48.3841H27.6907V44.089H32.3181V46.2365H34.6318V48.3841H36.9455V50.5316H36.9701ZM27.7153 50.5316V52.6792H30.029V54.8267H34.6564V56.9286H36.9455V61.2008H34.6318V59.0533H32.3181V56.8829H27.666V54.8039H23.0632V48.3612H25.377V50.5088H27.7153V50.5316ZM23.0386 65.5416V63.3712H20.7003V61.2008H18.4112V56.9286H20.7249V59.0761H23.0632V61.2237H27.6907V63.3712H30.029V65.5416H32.3181V67.6663H27.6907V65.5188H23.0386V65.5416Z" fill="#FDF9F3"/>
<path d="M64.8331 59.0762V61.2462H69.4851V59.0762H64.8331Z" fill="#FDF9F3"/>
<path d="M13.7592 37.6006V39.7477H20.725V37.6006H13.7592Z" fill="#FDF9F3"/>
</svg>
