<svg width="71" height="94" viewBox="0 0 71 94" fill="none" xmlns="http://www.w3.org/2000/svg">
<path d="M50.056 7.28355C50.056 8.26628 49.407 8.9954 48.519 9.15391C47.5627 9.34411 46.6406 8.932 46.2649 8.07607C46.1966 7.91757 46.1283 7.75907 46.0941 7.56886C45.7184 5.85701 45.3769 4.14516 45.0354 2.43331C44.9671 2.1163 44.9671 1.79929 45.0354 1.48229C45.2403 0.689762 45.9575 0.150846 46.8455 0.119145C47.7335 0.0874438 48.4849 0.531256 48.7923 1.29208C48.8606 1.51398 48.9289 1.73589 48.963 1.9578C49.3046 3.54285 49.6119 5.12789 49.9535 6.74464C49.9876 6.96654 50.0218 7.18845 50.0218 7.31525L50.056 7.28355Z" fill="#FDF9F3"/>
<path d="M60.2336 2.81369C61.6339 2.81369 62.5902 4.14512 62.0438 5.34976C61.9755 5.50826 61.873 5.66677 61.7705 5.82527C60.8825 7.22011 59.9604 8.61495 59.0724 10.0098C58.9699 10.1683 58.8675 10.2951 58.765 10.4536C58.1503 11.151 57.0573 11.3412 56.2035 10.8657C55.3497 10.3902 55.0081 9.43918 55.3838 8.58325C55.4521 8.39305 55.5887 8.23454 55.6912 8.04434C56.545 6.6812 57.433 5.34976 58.321 3.98662C58.4235 3.82811 58.5259 3.63791 58.6626 3.4794C59.0724 3.03559 59.5847 2.78198 60.1995 2.78198L60.2336 2.81369Z" fill="#FDF9F3"/>
<path d="M61.2242 36.0997C61.6682 36.3216 62.1122 36.5435 62.5562 36.7337C63.8541 37.2409 64.947 37.9701 65.9374 38.8577C68.1574 40.8866 69.626 43.3275 70.3774 46.1172C70.8214 47.7974 70.9922 49.5092 70.8556 51.2528C70.7189 52.9329 70.2408 54.5496 69.4894 56.0713C67.9525 59.178 65.5959 61.619 62.5562 63.521C60.3021 64.9159 57.8772 65.8669 55.2132 66.3107C55.0424 66.3424 54.8375 66.3741 54.6667 66.4058C54.0178 66.4375 53.403 66.6277 52.8224 66.8813C51.9003 67.2617 51.0123 67.7689 50.2268 68.3713C49.0655 69.2589 48.3483 70.4318 48.0068 71.7633C47.9043 72.0803 47.9385 72.3973 47.9385 72.746C47.9385 76.1697 47.9385 79.5934 47.9385 83.0171V85.8702C47.9385 86.0604 47.9384 86.2823 47.9043 86.4725C47.7335 87.4869 46.8114 88.0892 45.8551 88.0575C44.8646 88.0258 44.0449 87.2967 43.9425 86.3457C43.9425 86.1238 43.9425 85.9019 43.9425 85.68V71.4462C43.9425 71.1609 43.9425 70.9073 43.9083 70.6537C43.84 70.6537 43.84 70.6537 43.8059 70.6537C43.7375 70.6537 43.7034 70.6537 43.6351 70.6537C42.3714 71.0975 41.1077 71.5414 39.8782 71.9852C39.8782 71.9852 39.844 72.0169 39.8099 72.0486C39.7074 72.3022 39.7757 72.5875 39.7757 72.8411V85.8702C39.7757 86.0921 39.7757 86.314 39.7757 86.5359C39.7074 87.4869 38.8194 88.216 37.8631 88.216C36.7702 88.216 35.9164 87.4235 35.8822 86.5993C35.8822 86.3457 35.8822 86.0921 35.8822 85.8385V78.9277C35.8822 78.5156 35.8139 78.1351 35.6773 77.7547C35.4724 77.1207 35.4041 76.4867 35.3016 75.8527C35.1991 75.3455 35.0625 74.8382 34.8576 74.331C34.6868 73.9823 34.4819 73.6653 34.1404 73.4434C33.7647 73.1581 33.389 73.0313 32.8767 73.0313C30.5542 73.1264 28.2659 72.9362 25.9435 72.6192C21.9134 72.0803 18.0882 70.939 14.3654 69.4174C12.4528 68.6566 10.6768 67.6738 8.93496 66.596C8.42266 66.279 7.94451 65.9303 7.46636 65.5499C7.09067 65.2329 6.68082 64.9159 6.40759 64.5037C6.10021 64.0599 5.65622 63.838 5.14391 63.6795C4.18761 63.3942 3.33377 62.9504 2.54823 62.3481C1.52362 61.5239 0.806388 60.5094 0.567312 59.2414C0.396544 58.3855 0.499007 57.5612 0.772236 56.737C1.25039 55.2471 2.10423 53.9473 3.36792 52.9329C3.57284 52.7427 3.81191 52.5842 4.05099 52.3623C3.98268 52.1721 3.88022 51.9819 3.81191 51.7917C3.33376 50.7772 3.09469 49.7628 3.09469 48.6533C3.09469 46.9414 3.91438 45.6417 5.45129 44.7224C5.9636 44.4054 6.51006 44.1201 7.02236 43.8347C8.08113 43.2324 9.13989 42.6301 10.1986 42.0278C11.155 41.4889 12.1113 40.9183 13.1017 40.3793C17.2343 38.1286 21.2986 35.7827 25.3287 33.3734C26.9339 32.4224 28.5733 31.5031 30.1785 30.552C30.4518 30.3935 30.6909 30.2033 30.9299 29.9814C31.8179 29.0621 32.7059 28.1745 33.5598 27.2552C34.7893 25.9871 35.7798 24.5606 36.5653 23.0072C37.1117 21.866 37.7265 20.7565 38.273 19.6152C38.4437 19.2665 38.6487 18.9495 38.956 18.6959C39.1268 18.5374 39.2634 18.3472 39.4 18.157C41.4493 15.4941 44.1816 13.7189 47.6311 12.958C50.1926 12.3874 52.72 12.5142 55.1449 13.4969C58.9701 14.9869 61.0876 18.3472 61.4633 21.1052C61.5658 21.8026 61.5999 22.5 61.5658 23.1974C61.5658 23.9583 60.9852 24.624 60.2679 24.8459C59.4824 25.0995 58.5944 24.8459 58.0821 24.2753C57.843 23.99 57.6722 23.6729 57.6381 23.3242C57.6381 22.9755 57.6039 22.6268 57.5698 22.2781C57.5015 20.7882 56.8867 19.5201 55.828 18.4106C54.8033 17.3328 53.5397 16.6987 52.0369 16.4451C50.3975 16.1598 48.8265 16.3183 47.2895 16.8889C44.8988 17.7449 43.1228 19.2348 41.9616 21.3271C41.9274 21.4222 41.825 21.5173 41.8591 21.6124C41.9274 21.9928 41.6883 22.2781 41.5517 22.5951C41.1419 23.4827 40.8345 24.3704 40.6296 25.3214C40.4246 26.2407 40.2539 27.1918 40.0831 28.1111C40.049 28.3647 40.0148 28.6183 40.0148 28.8402C40.049 29.9497 40.2197 31.0276 40.4588 32.1054C40.493 32.2639 40.5613 32.4541 40.5954 32.6126C40.6637 33.0564 40.8686 33.4051 41.1419 33.7538C42.7812 36.068 44.0791 38.509 44.8988 41.2036C45.2403 42.2814 45.4111 43.3592 45.4452 44.4371C45.5135 46.2123 45.1379 47.9242 44.3865 49.5409C43.396 51.76 41.9274 53.6937 40.1173 55.4056C37.7948 57.6246 35.0625 59.3682 32.057 60.6679C28.7441 62.0945 25.2946 63.1406 21.7084 63.6795C21.0937 63.7746 20.5814 63.9965 20.1374 64.3769C19.3518 65.011 19.2835 65.962 19.9666 66.7228C20.1374 66.913 20.4106 67.1032 20.6155 67.2617C20.8546 67.4202 21.0937 67.5787 21.3327 67.7372C21.5377 67.864 21.7767 67.9591 21.9817 68.0225C23.4161 68.4347 24.8847 68.72 26.3875 68.9102C27.7536 69.1004 29.1198 69.2272 30.4859 69.3223C32.6718 69.4491 34.8234 69.2589 36.9751 68.7834C40.0148 68.1176 42.8496 67.0398 45.5477 65.5499C47.392 64.5354 49.0314 63.2991 50.5 61.8409C52.6175 59.7486 54.3935 57.4344 55.7596 54.8667C57.0575 52.4574 57.8089 49.8896 58.1504 47.195C58.3553 45.4515 58.4578 43.7079 58.287 41.9644C58.1845 41.0134 58.0479 40.094 57.9113 39.143C57.6723 37.6531 57.399 36.1948 57.1258 34.7049C57.0916 34.4513 56.9892 34.166 56.9209 33.9123C56.7159 33.0247 57.2282 32.1054 58.1504 31.8201C59.0042 31.5348 59.9947 31.7567 60.5412 32.6126C60.8144 33.0247 60.951 33.4685 61.0193 33.944C61.0876 34.4196 61.1559 34.8951 61.2584 35.3389C61.2925 35.5608 61.3608 35.7827 61.395 36.068L61.2242 36.0997ZM6.61251 55.1837C5.65621 55.7543 4.97314 56.5468 4.59745 57.5612C4.1193 58.7659 4.59745 59.3048 5.41714 59.812C5.92944 60.0973 6.4759 60.2875 7.05651 60.446C8.11527 60.6996 9.17404 60.8581 10.2328 60.8898C12.0088 60.9532 13.7848 60.9215 15.5608 60.7947C17.8832 60.6045 20.2057 60.3192 22.494 59.8437C25.7044 59.2097 28.7441 58.1953 31.6472 56.7687C34.3794 55.4056 36.736 53.5986 38.6487 51.3162C39.5025 50.3017 40.1856 49.1922 40.6979 48.0193C41.3468 46.4659 41.5176 44.8809 41.176 43.2324C40.8345 41.584 40.1514 40.0306 39.3659 38.5407C39.2976 38.4139 39.1951 38.2871 39.0927 38.192C38.7511 37.9701 38.5462 37.6531 38.3413 37.3361C38.1705 37.1141 37.9997 36.8922 37.7948 36.702C37.1117 36.068 36.2921 35.5925 35.3699 35.2755C34.4478 34.9902 33.4915 34.8 32.5351 34.8C31.169 34.8 29.8712 35.0853 28.7099 35.8144C27.7195 36.4167 26.729 37.019 25.7386 37.6214C22.4598 39.5868 19.1469 41.4889 15.7657 43.3275C12.8285 44.9126 10.0279 46.6561 7.15898 48.3363C7.02236 48.8118 7.09066 49.2873 7.22728 49.7628C7.56881 50.9991 8.35435 51.9502 9.54973 52.5842C11.3257 53.5035 13.2042 53.8522 15.2192 53.662C15.5608 53.662 15.9023 53.5669 16.2439 53.5035C17.5075 53.2816 18.3614 54.0424 18.5663 54.7716C18.8395 55.7543 18.3272 56.7053 17.2685 57.0223C17.0294 57.0857 16.7903 57.1491 16.5512 57.1808C15.6974 57.3393 14.8436 57.3393 13.9897 57.3393C11.5648 57.3393 9.31065 56.7053 7.22728 55.5641C7.05651 55.469 6.85159 55.3739 6.64667 55.2471L6.61251 55.1837Z" fill="#FDF9F3"/>
<path d="M42.6448 89.7694H49.9878C50.2269 89.7694 50.466 89.7694 50.705 89.7694C51.6955 89.8328 52.5152 90.6251 52.5152 91.5443C52.5152 92.4952 51.7638 93.2875 50.7733 93.3826C50.5343 93.3826 50.2952 93.3826 50.0561 93.3826H35.3017C34.9944 93.3826 34.7211 93.3826 34.4137 93.3509C33.4233 93.2241 32.7061 92.4635 32.7061 91.5443C32.7061 90.6251 33.4916 89.8328 34.5162 89.7377C34.7894 89.7377 35.0627 89.7377 35.3359 89.7377H42.6789L42.6448 89.7694Z" fill="#FDF9F3"/>
<path d="M62.7612 26.0824H68.2599C68.6015 26.0824 68.943 26.0824 69.2845 26.2409C70.0701 26.5578 70.5824 27.2868 70.5141 28.0792C70.4458 28.8716 69.831 29.5372 68.9771 29.7274C68.7039 29.7907 68.4307 29.7907 68.1916 29.7907C64.5372 29.7907 60.8827 29.7907 57.1941 29.7907C56.9551 29.7907 56.716 29.7907 56.4769 29.7274C55.4523 29.5372 54.8034 28.7448 54.8717 27.7939C54.94 26.9065 55.7255 26.1775 56.716 26.0824C56.9209 26.0824 57.16 26.0824 57.3649 26.0824H62.7612Z" fill="#FDF9F3"/>
<path d="M51.0123 25.3209C51.0123 26.3352 50.1585 27.1276 49.0656 27.1276C47.9385 27.1276 47.0847 26.3035 47.0847 25.2576C47.0847 24.2433 47.9385 23.4509 49.0314 23.4509C50.1585 23.4509 51.0123 24.2433 51.0123 25.2893V25.3209Z" fill="#FDF9F3"/>
<path d="M22.3915 55.9129C21.4694 55.9129 20.6497 55.3423 20.4448 54.5497C20.2057 53.6938 20.6155 52.8379 21.4352 52.4575C21.6743 52.3307 21.9475 52.2673 22.1866 52.2039C24.2358 51.665 26.1826 50.8724 28.061 49.9214C29.5296 49.1923 30.8958 48.273 32.0912 47.1951C32.2619 47.0366 32.4327 46.8781 32.6376 46.7513C33.4232 46.2124 34.4819 46.2758 35.165 46.9098C35.8822 47.5438 35.9847 48.5583 35.4041 49.2874C35.2675 49.4459 35.1309 49.6044 34.9601 49.7312C33.6622 50.9358 32.2278 51.982 30.6226 52.8062C28.3343 54.0108 25.9777 55.0253 23.4844 55.691C23.1429 55.7861 22.7672 55.9129 22.4257 55.9129H22.3915Z" fill="#FDF9F3"/>
</svg>
