<svg width="215" height="116" viewBox="0 0 215 116" fill="none" xmlns="http://www.w3.org/2000/svg">
<path d="M196.676 103.363C196.398 103.547 196.359 103.805 196.279 104.062C196.041 105.203 195.328 106.124 194.495 106.97C193.424 107.964 192.155 108.516 190.648 108.516C189.299 108.516 187.951 108.516 186.563 108.443C185.016 108.406 183.469 108.296 181.923 108.222C179.266 108.075 176.608 107.964 173.951 107.817C172.722 107.743 171.532 107.707 170.303 107.633C167.764 107.522 165.226 107.375 162.688 107.265C160.943 107.191 159.198 107.081 157.453 106.97C157.096 106.97 156.739 106.897 156.382 106.786C155.589 106.565 155.153 105.94 155.153 105.24C155.153 104.541 155.589 103.952 156.342 103.731C156.739 103.621 157.056 103.436 157.334 103.142C157.85 102.627 158.563 102.295 159.238 101.927C159.555 101.78 159.912 101.743 160.308 101.817C160.784 101.89 161.221 101.964 161.696 102.001C162.133 102.038 162.569 102.074 163.005 102.038C164.671 101.89 166.297 101.743 167.923 101.596C168.002 101.522 168.082 101.522 168.082 101.485C169.668 99.4977 171.691 97.9516 173.951 96.6632C177.164 94.8227 180.614 93.6815 184.302 93.0925C185.333 92.9453 186.325 92.7244 187.277 92.2459C187.872 91.9146 188.625 91.7673 189.26 91.5097C189.696 90.8839 190.132 90.2581 190.568 89.6323C191.362 88.5648 192.353 87.6813 193.503 86.9083C194.653 86.1352 195.883 85.4726 197.192 85.0309C197.667 84.8837 197.905 84.626 198.064 84.1842C198.183 83.7793 198.381 83.4112 198.619 83.0431C200.087 80.4295 203.101 79.2884 206.075 80.0614C207.741 80.4663 209.169 81.2762 210.398 82.4173C212.5 84.3315 213.65 86.6874 213.928 89.3746C214.324 93.6079 212.897 97.2154 209.684 100.234C207.622 102.148 205.163 103.363 202.308 103.805C200.602 104.062 198.937 103.989 197.311 103.547C197.073 103.473 196.835 103.4 196.636 103.363H196.676Z" fill="#FDF9F3"/>
<path d="M205.044 77.5951C204.092 77.5951 203.22 77.3742 202.466 76.8956C201.475 76.233 200.919 75.3864 200.999 74.2084C201.078 73.4354 201.475 72.8096 202.07 72.2574C202.426 71.963 202.744 71.6685 203.101 71.374C203.458 71.0795 203.933 70.969 204.409 71.0059C205.441 71.1163 206.472 71.3372 207.463 71.7053C209.922 72.6624 209.882 75.3496 208.177 76.6012C207.344 77.2269 206.194 77.5951 205.004 77.5582L205.044 77.5951Z" fill="#FDF9F3"/>
<path d="M213.214 70.8954C214.245 70.8954 215.038 71.5947 214.999 72.5148C214.999 72.8461 214.919 73.1773 214.8 73.4718C214.681 73.8398 214.364 74.0975 213.968 74.2815C213.016 74.7231 211.588 74.2079 211.152 73.3246C210.795 72.5517 211.152 71.6315 211.945 71.1899C212.223 71.0427 212.897 70.8586 213.214 70.8586V70.8954Z" fill="#FDF9F3"/>
<path d="M135.799 99.1664C136.156 99.3136 136.434 99.3136 136.672 99.1664C137.505 98.7246 138.377 98.3565 139.17 97.7675C140.082 97.0681 141.153 96.5528 142.264 96.111C142.978 95.8165 143.731 95.8165 144.445 96.111C144.921 96.3319 145.357 96.5896 145.793 96.8841C147.3 97.9148 148.53 99.2032 149.601 100.602C150.434 101.67 151.028 102.811 151.385 104.062C151.742 105.387 151.822 106.749 151.504 108.111C150.989 110.099 149.323 111.13 147.181 110.909C146.071 110.799 145.119 110.357 144.167 109.842C143.691 109.584 143.334 109.179 143.017 108.737C142.819 108.48 142.66 108.222 142.422 108.001C141.748 107.338 140.955 107.265 140.082 107.67C138.575 108.332 137.187 109.179 135.72 109.878C135.363 110.062 135.006 110.21 134.689 110.357C133.578 110.946 132.349 111.093 131.119 111.24C130.881 111.24 130.604 111.24 130.366 111.24C128.899 111.056 127.51 110.578 126.321 109.768C125.765 109.4 125.171 109.032 124.655 108.627C123.743 107.964 122.712 107.522 121.601 107.338C121.125 107.265 120.689 107.265 120.213 107.338C118.627 107.743 117.001 107.927 115.375 107.854C111.885 107.707 108.712 106.713 105.896 104.725C105.737 104.614 105.579 104.504 105.42 104.394C104.865 104.504 104.389 104.762 103.953 105.056C102.485 106.05 101.097 107.081 99.8283 108.296C99.1541 108.958 98.4005 109.584 97.6867 110.247C96.7348 111.13 95.783 112.013 94.8312 112.934C94.6329 113.118 94.4742 113.339 94.3156 113.523C94.038 113.854 93.8001 114.185 93.4828 114.48C92.7293 115.179 91.8171 115.474 90.7463 115.363C89.9531 115.29 89.1599 115.069 88.4857 114.664C87.0976 113.891 85.9872 112.86 85.194 111.572C84.7181 110.799 84.4405 109.989 84.2025 109.105C83.8852 107.927 83.6869 106.749 83.4093 105.572C83.4093 105.387 83.33 105.203 83.2903 105.056C82.8541 103.032 83.4093 101.228 84.5594 99.5345C84.7577 99.2032 85.075 98.9823 85.4319 98.8719C86.0665 98.651 86.7407 98.3933 87.4546 98.4669C87.7322 98.4669 88.0098 98.5038 88.2477 98.651C88.8426 98.9823 89.5565 98.9823 90.0324 99.5345C90.8653 100.418 91.5791 101.412 92.174 102.479C92.3327 102.737 92.4516 103.032 92.6499 103.363C92.8086 103.289 92.9672 103.216 93.0465 103.105C94.1173 102.222 95.2278 101.338 96.2589 100.418C97.2107 99.5713 98.0039 98.5774 98.6781 97.4731C98.9161 97.0681 99.1144 96.6632 99.3127 96.2215C99.7886 95.1908 99.9472 94.0864 99.9472 92.9821C99.9472 92.5772 99.8679 92.1722 99.8283 91.7673C99.7489 91.2152 99.5506 90.6998 99.154 90.2213C98.6781 89.6691 98.2815 89.0433 97.9246 88.4543C97.9643 88.3807 97.9643 88.3439 98.0039 88.3439C99.1144 87.6077 100.225 86.8346 101.375 86.0984C102.565 85.3254 103.794 84.5523 105.024 83.8161C106.531 82.9327 108.077 82.0492 109.624 81.2025C110.179 80.908 110.695 80.6135 111.25 80.2454C110.735 79.8773 110.735 79.8773 110.298 80.0614C109.783 80.2822 109.307 80.5031 108.791 80.6872C108.077 80.9449 107.403 81.313 106.769 81.7179C106.055 82.1596 105.301 82.5645 104.508 82.8958C103.318 83.4112 102.208 84.037 101.177 84.7732C99.5903 85.9144 97.766 86.6874 95.902 87.3868C95.1881 87.6445 94.4346 87.6445 93.7207 87.3132C93.3638 87.1291 92.9672 86.9819 92.6103 86.761C91.8964 86.3561 91.5791 85.7671 91.5395 85.0309C91.4601 83.8897 91.8964 82.8958 92.8086 82.1596C94.1966 81.0185 95.7037 79.9878 97.3297 79.1411C99.4317 78 101.573 77.0061 103.755 76.0858C103.913 76.0122 104.032 75.9385 104.151 75.8281C104.151 75.8281 104.151 75.7913 104.151 75.7177C104.032 75.7177 103.874 75.7177 103.755 75.7177C103.12 75.8649 102.446 76.0122 101.811 76.1962C101.296 76.3435 100.78 76.5275 100.185 76.5643C99.9869 76.5643 99.8283 76.6748 99.63 76.7484C99.392 76.8588 99.1937 76.9692 98.9161 77.0797C98.8368 76.8956 98.7575 76.7852 98.7575 76.6379C98.5592 75.9385 98.4798 75.2391 98.5195 74.5029C98.5195 74.282 98.5195 74.0244 98.6385 73.8035C98.9161 73.1409 99.2334 72.4783 99.5903 71.8525C99.7886 71.5212 100.146 71.374 100.542 71.3003C101.573 71.1163 102.565 70.785 103.517 70.3801C103.874 70.2328 104.151 70.0488 104.27 69.6438C104.151 69.6438 103.992 69.6438 103.874 69.6438C103.596 69.7175 103.358 69.8279 103.08 69.9015C101.415 70.4169 99.7093 70.8586 97.8849 70.8586C96.9331 70.8586 96.021 70.7482 95.1088 70.4537C94.2363 70.1592 93.5621 69.6806 93.1655 68.8708C92.8482 68.2818 92.6499 67.6928 92.5309 67.0302C92.4516 66.5885 92.3327 66.1836 91.9757 65.8523C91.6584 65.5578 91.3412 65.3001 90.8653 65.2633C90.6273 65.2633 90.3893 65.1529 90.1514 65.0793C89.5168 64.932 89.1203 64.4903 88.922 63.9381C88.7633 63.5332 88.684 63.0914 88.7633 62.6497C88.8426 62.208 88.922 61.8031 88.9616 61.3613C89.0409 60.8092 89.0806 60.2938 89.1203 59.7416C89.1996 58.5269 89.2789 57.2753 89.3582 56.0605C89.4772 54.5513 89.5565 53.042 89.6755 51.5327C89.7151 50.907 89.6358 50.318 89.3979 49.729C89.0806 48.9928 88.565 48.5142 87.7322 48.3302C86.8597 48.1461 86.0268 47.9253 85.1543 47.7044C85.0354 47.7044 84.9164 47.594 84.7577 47.5571C85.075 47.0418 85.3526 46.5632 85.6302 46.0847C85.7096 46.0847 85.7889 46.0847 85.8285 46.0847C87.1769 46.3792 88.5254 46.6737 89.8341 47.0418C90.5876 47.2259 91.3015 47.1522 92.0154 46.8945C92.3723 46.7841 92.6103 46.4896 92.8482 46.2688C94.1966 44.8699 95.783 43.7656 97.6073 42.9926C97.766 42.9189 97.9246 42.8453 98.1626 42.7349C97.885 42.33 97.3694 42.2195 97.0521 41.8146C97.6867 41.5569 98.2815 41.2992 98.9558 41.0048C99.273 41.1888 99.63 41.3729 99.9869 41.6306C100.423 41.925 100.859 41.9987 101.375 41.925C102.128 41.8146 102.922 41.741 103.675 41.741C109.069 41.8514 113.193 44.0233 116.049 48.2197C117.001 49.5818 117.715 51.0542 118.23 52.6371C118.666 54.0359 118.984 55.4347 119.261 56.8335C119.38 57.4593 119.341 58.1219 119.261 58.7477C119.182 59.8153 119.38 60.2202 120.411 60.6987C122.593 61.6926 124.417 63.0914 125.884 64.8584C128.304 67.8033 129.414 71.1163 129.097 74.8342C129.017 75.5704 128.859 76.3067 128.7 77.0429C128.581 77.4846 128.7 77.8527 129.017 78.184C129.216 78.4049 129.454 78.4785 129.731 78.5153C130.604 78.6626 131.476 78.773 132.349 78.957C132.944 79.0675 133.539 79.2147 134.094 79.3988C136.751 80.3559 139.21 81.6074 141.352 83.3744C142.184 84.0738 142.898 84.8468 143.572 85.6567C143.969 86.1352 144.128 86.6506 144.128 87.2396C144.128 87.8285 143.969 88.7488 143.652 89.485C143.216 90.5526 142.621 91.5465 141.907 92.4667C141.391 93.0925 140.995 93.7919 140.519 94.4545C140.4 94.6018 140.32 94.749 140.162 94.8963C138.972 96.111 137.782 97.3258 136.553 98.5406C136.315 98.7614 136.037 98.9455 135.72 99.1664H135.799ZM108.355 95.0803C108.355 95.7429 108.434 96.1847 108.672 96.6632C108.752 96.8473 108.871 97.0313 109.029 97.1786C109.981 97.9148 111.052 98.3565 112.321 98.2461C114.066 98.0988 115.732 97.6571 117.278 96.8104C119.42 95.6325 121.125 93.976 122.791 92.2827C122.87 92.1722 122.95 92.0986 123.029 91.9882C123.069 91.9146 123.108 91.841 123.148 91.7673C123.188 91.6201 123.148 91.4728 123.029 91.3624C122.87 91.252 122.712 91.252 122.553 91.3624C122.434 91.436 122.275 91.5465 122.196 91.6569C121.403 92.4667 120.53 93.1661 119.618 93.8287C118.428 94.7122 117.12 95.338 115.811 96.0374C115.375 96.2583 114.899 96.4055 114.423 96.516C113.828 96.6632 113.233 96.7736 112.638 96.8841C111.686 97.1049 110.973 96.7 110.378 96.0742C110.1 95.7797 110.021 95.4116 110.14 95.0435C110.378 94.2337 110.735 93.4974 111.329 92.8349C111.924 92.1722 112.678 91.7305 113.471 91.2888C114.621 90.663 115.692 89.9268 116.644 89.0433C116.921 88.7856 117.199 88.4543 117.437 88.1598C117.556 88.0494 117.635 87.9021 117.675 87.7549C117.794 87.4604 117.596 87.1659 117.239 87.2027C116.842 87.2027 116.525 87.4236 116.208 87.6813C115.652 88.123 115.097 88.5648 114.582 88.9697C113.907 89.5218 113.114 89.89 112.321 90.2581C110.933 90.9575 109.941 92.025 109.069 93.1661C108.633 93.7551 108.355 94.3809 108.395 95.0435L108.355 95.0803ZM103.913 62.8338C103.755 62.9074 103.596 62.981 103.437 63.0914C102.208 63.7172 100.899 64.2694 99.5506 64.6375C98.2022 65.0056 96.8538 65.3737 95.4261 65.521C94.7915 65.5946 94.3949 66.0363 94.3553 66.6253C94.3553 67.1407 94.5139 67.6192 94.7915 68.0978C94.9105 68.3186 95.1088 68.4291 95.3864 68.4659C95.902 68.5395 96.3779 68.4659 96.8538 68.3554C99.1144 67.8401 101.177 66.9566 102.882 65.4106C103.199 65.1161 103.556 64.7848 103.874 64.4903C103.953 64.4167 104.032 64.343 104.111 64.2694C104.31 64.0117 104.429 63.7172 104.349 63.3859C104.349 63.1651 104.191 62.9442 103.913 62.8338ZM100.899 55.766C100.899 56.8336 101.177 57.6802 101.851 58.4532C102.763 59.4471 103.953 59.8521 105.301 59.8889C105.817 59.8889 106.372 59.8153 106.808 59.5576C107.72 59.0054 108.395 58.3428 108.712 57.3489C109.148 55.9869 108.831 54.8089 108.038 53.7046C107.839 53.4469 107.562 53.2261 107.284 53.0052C106.848 52.7107 106.332 52.4898 105.777 52.3426C105.341 52.2322 104.905 52.1953 104.468 52.269C103.318 52.4898 102.287 53.0052 101.613 53.9623C101.534 54.0727 101.494 54.1832 101.375 54.2936C100.978 54.7721 100.82 55.2875 100.859 55.766H100.899Z" fill="#FDF9F3"/>
<path d="M67.7444 39.8268C67.5857 39.5691 67.4667 39.3851 67.3874 39.201C67.1891 38.8329 66.7925 38.612 66.4753 38.3176C66.277 38.1335 65.92 38.3176 65.92 38.5752C65.92 38.9433 65.9994 39.3483 66.1976 39.6796C66.3959 40.0109 66.6736 40.3054 66.5942 40.7471C66.5942 40.8575 66.7132 41.0416 66.7925 41.152C68.6962 44.5018 70.6395 47.8148 72.5431 51.1646C72.8208 51.68 73.0984 52.1954 73.3363 52.7107C74.4864 55.1034 75.7555 57.4594 77.1436 59.7416C78.1351 61.3613 79.0869 62.981 80.0387 64.6007C80.7923 65.8155 81.5458 66.9934 82.2993 68.2082C83.5288 70.196 84.8772 72.1102 86.2256 74.0244C86.3446 74.1716 86.4239 74.3188 86.5429 74.4661C86.8998 75.0919 87.2964 75.644 87.7723 76.1962C88.1292 76.6011 88.4862 77.0429 88.6448 77.595C88.7241 77.7791 88.8431 77.9632 88.9621 78.1104C89.438 78.8098 89.9536 79.546 90.4295 80.2454C90.6278 80.5399 90.8261 80.8712 91.0244 81.2393C90.7468 81.5338 90.5088 81.8283 90.2708 82.1228C89.7156 81.9019 89.2 81.6075 88.6845 81.4602C88.1292 81.313 87.5344 81.2393 86.8998 81.1289C86.7412 80.8712 86.5429 80.6135 86.3842 80.3191C85.9083 79.4724 85.4324 78.6257 84.9168 77.8159C84.2823 76.7852 83.5684 75.8281 82.8942 74.8342C82.7356 74.6133 82.6166 74.3925 82.458 74.1716C81.5458 72.5151 80.594 70.8954 79.6818 69.2389C79.6025 69.0917 79.5232 68.9076 79.4042 68.7604C76.7074 64.343 74.1692 59.8153 71.5913 55.3243C70.7188 53.815 69.7273 52.3426 68.8152 50.8702C67.9427 49.5081 67.1098 48.1093 66.4356 46.6369C65.7217 45.1644 64.9286 43.7656 64.0164 42.4404C63.7388 41.9987 63.4215 41.5569 63.1835 41.1152C62.2317 39.4955 61.1609 37.9126 60.0901 36.3666C59.9711 36.2193 59.8918 36.0721 59.7729 35.888C58.5038 33.4953 56.8381 31.3603 55.5293 29.0043C54.3792 26.9429 53.1894 24.8447 52.0393 22.7833C51.4444 21.6789 50.8495 20.5746 50.215 19.5071C49.5011 18.2923 48.7079 17.1143 47.9147 15.9364C47.0422 14.648 46.1697 13.3964 45.2972 12.108C45.0989 11.8135 44.9403 11.519 44.7816 11.2246C44.4247 10.3043 44.7023 9.49444 45.4955 8.97908C46.0507 8.64778 46.6853 8.64778 47.2009 8.97908C47.5974 9.23676 47.8751 9.60487 48.113 9.97298C48.351 10.3411 48.6286 10.7092 48.9855 11.0037C48.8665 10.4883 48.7872 9.97299 48.5889 9.45763C48.3906 8.90546 48.5493 8.50054 48.9459 8.13243C49.1838 7.91156 49.4218 7.7275 49.6994 7.50664C49.977 7.32258 50.215 7.13853 50.4926 6.95447C52.3566 5.88695 54.2205 4.81943 56.1242 3.82552C57.2347 3.23655 58.5038 2.86844 59.7332 2.46351C61.7955 1.80091 63.9371 1.35918 66.0787 0.954255C68.9738 0.402088 71.8689 0.218032 74.8434 0.402088C77.1436 0.549332 79.4042 0.917444 81.6648 1.32237C83.2115 1.58004 84.7582 1.87453 86.3446 1.87453C86.7808 1.87453 87.2171 1.94816 87.6533 2.05859C89.5173 2.46351 91.421 2.61076 93.3246 2.83162C94.792 3.01568 96.2594 2.94206 97.7268 2.79481C99.0355 2.68438 100.305 2.46351 101.613 2.31627C102.01 2.27945 102.446 2.20583 102.843 2.13221C104.072 1.94815 105.262 1.54323 106.373 1.06469C107.086 0.7702 107.761 0.4389 108.554 0.328467C108.673 0.328467 108.752 0.291657 108.871 0.254846C109.347 0.218034 109.704 0.40209 109.863 0.807013C109.942 0.991068 109.982 1.21193 110.021 1.39599C110.259 2.83162 110.457 4.30407 110.695 5.7397C110.933 7.10171 111.409 8.35329 112.163 9.56806C113.789 12.108 115.772 14.3535 118.032 16.4517C119.381 17.7033 120.571 19.0653 121.602 20.501C122.633 21.8998 123.624 23.3354 124.695 24.6974C125.409 25.6913 126.004 26.722 126.44 27.8632C126.559 28.1945 126.678 28.4522 126.956 28.7467C127.352 29.1884 127.233 29.7774 126.678 30.035C126.48 30.1455 126.202 30.1823 125.964 30.2559C125.488 30.4032 124.973 30.5872 124.497 30.7345C124.061 30.8817 123.624 31.029 123.188 31.213C121.562 31.7652 119.976 32.3173 118.35 32.8695C116.605 33.4953 114.78 34.0106 112.956 34.3788C111.013 34.7469 109.03 35.115 107.047 35.2254C104.628 35.3727 102.248 35.6303 99.8287 35.4095C99.5908 35.4095 99.3925 35.4095 99.1545 35.4095C97.1319 35.3359 95.1093 35.1886 93.1263 34.8573C91.8572 34.6733 90.5881 34.5628 89.319 34.5996C87.8913 34.6364 86.4239 34.5996 84.9962 34.7101C81.5458 34.9309 78.1748 35.3358 74.8434 36.2561C73.0984 36.7347 71.4723 37.3973 69.9256 38.2807C69.41 38.5752 68.9341 38.9433 68.4582 39.2746C68.2203 39.4219 68.022 39.6059 67.7444 39.8268ZM53.7843 19.5439C53.6653 19.6911 53.705 19.8384 53.824 19.9488C54.2206 20.6482 54.5775 21.3844 55.0137 22.0838C56.2035 24.1085 57.4329 26.1331 58.821 28.0473C59.1383 28.489 59.4556 28.8571 59.8125 29.262C59.8918 29.3356 60.0108 29.3724 60.0901 29.4461C60.0901 29.2252 60.0505 29.0411 59.9711 28.9307C59.2176 27.8264 58.4641 26.722 57.7502 25.5809C56.6001 23.8508 55.45 22.1207 54.3395 20.3905C54.2602 20.2433 54.1809 20.1329 54.0619 20.0224C54.0619 19.9856 53.9033 20.0224 53.8636 19.9856C53.8636 19.8384 53.8636 19.6911 53.8636 19.5439C53.7446 19.323 53.586 19.1021 53.467 18.8813C53.0704 18.1451 52.6342 17.4088 52.2376 16.7094C51.8807 16.1204 51.5237 15.5683 51.1668 14.9793C50.8495 14.4639 50.5322 13.9486 50.1753 13.47C50.096 13.3228 50.0167 13.2124 49.8184 13.2492C49.6597 13.3228 49.6597 13.47 49.739 13.5805C50.3736 14.5744 51.0478 15.5683 51.6823 16.5254C51.96 16.9671 52.2772 17.372 52.5945 17.8138C52.9515 18.3291 53.2687 18.8813 53.586 19.3966C53.6653 19.5071 53.7446 19.5807 53.9033 19.5439H53.7843ZM61.1213 31.1394C61.1213 31.1026 61.1213 31.0658 61.1213 31.029C61.1213 31.029 61.1609 31.029 61.2006 31.029C61.2006 31.029 61.1609 31.1026 61.1213 31.1394C61.1609 31.1762 61.2799 31.213 61.2799 31.2866C61.5179 31.7652 61.7955 32.2437 62.0334 32.7591C62.668 34.1579 63.7388 35.2622 64.8096 36.3666C64.8889 36.477 65.0079 36.5506 65.1269 36.5874C65.2062 36.5874 65.2855 36.5874 65.3648 36.5874C65.4045 36.5874 65.4838 36.4402 65.4441 36.4034C65.2855 36.0353 65.1269 35.704 64.8889 35.3727C64.2147 34.3788 63.5405 33.3849 62.8266 32.391C62.5887 32.0597 62.3507 31.7652 62.0334 31.5075C61.8748 31.3603 61.6368 31.2498 61.3989 31.1394C61.3196 31.1394 61.2006 31.1394 61.0816 31.1394H61.1213ZM71.4327 15.1265C71.4327 16.1941 71.5913 17.2248 71.8689 18.2187C72.3448 19.7647 73.0984 21.2004 73.9709 22.5624C74.4468 23.2986 75.0417 23.998 75.7159 24.6238C76.2315 25.1024 76.7867 25.5809 77.3023 26.0963C78.4524 27.2742 79.8801 28.0841 81.4665 28.673C81.8631 28.8203 82.2597 28.8939 82.6563 29.0043C83.2511 29.2252 83.846 29.4461 84.4806 29.1884C84.4806 29.1884 84.5202 29.1884 84.5599 29.1884C85.4324 29.262 86.2653 29.2988 87.0981 29.4461C88.1292 29.5933 89.1207 29.6669 90.1519 29.5565C90.945 29.4461 91.7382 29.262 92.4918 29.078C94.5937 28.5626 96.0214 27.3478 96.9733 25.5809C97.8458 23.9244 98.5596 22.1943 98.8769 20.3537C98.9562 19.8016 99.0752 19.2126 99.0355 18.6604C98.9959 17.372 98.7183 16.1204 98.2424 14.9057C97.8458 13.9118 97.3699 12.9547 96.9336 11.9976C96.6956 11.4822 96.3784 11.0037 96.1008 10.4883C95.8231 10.0834 95.5852 9.64168 95.0696 9.42082C93.9988 8.50054 92.7297 7.87475 91.421 7.32258C90.9054 7.10172 90.3898 6.84404 89.8743 6.58636C88.8431 6.03419 87.7723 5.66608 86.6222 5.48203C86.2653 5.4084 85.9083 5.33478 85.5514 5.26116C84.6789 5.0771 83.7667 4.85624 82.8546 4.7458C80.4353 4.4145 78.1748 4.85624 76.1521 6.21825C74.883 7.0649 73.8122 8.09562 72.8604 9.23676C72.7018 9.42082 72.5431 9.6785 72.4638 9.89936C72.1862 10.7828 71.9086 11.6663 71.631 12.5498C71.393 13.3964 71.274 14.2799 71.3137 15.1265H71.4327Z" fill="#FDF9F3"/>
<path d="M97.3699 77.3005C97.2112 77.7422 96.894 78.0735 96.4577 78.368C95.7835 78.8098 95.1093 79.2883 94.4351 79.7301C94.1178 79.9509 93.8005 80.135 93.4436 80.319C93.166 80.4663 92.8884 80.5399 92.5711 80.5031C92.1745 80.5031 91.8572 80.319 91.7382 79.9877C91.3416 79.0675 90.7864 78.2576 90.2312 77.4478C90.0329 77.1901 89.8742 76.9324 89.7553 76.6379C89.5173 76.0121 89.676 75.5336 90.1915 75.1287C90.3502 75.0182 90.5088 74.9078 90.6674 74.7974C92.2935 73.7666 93.9195 72.7727 95.6645 71.8893C95.9025 71.7788 96.1404 71.6316 96.418 71.558C97.0526 71.4107 97.6078 71.8157 97.6078 72.4046C97.6078 72.6255 97.5682 72.8832 97.4888 73.0672C97.0129 74.4292 96.9336 75.7913 97.3699 77.1533C97.3699 77.1901 97.3699 77.2637 97.3699 77.3005Z" fill="#FDF9F3"/>
<path d="M82.9735 81.3865C82.8942 80.7607 83.0925 80.2085 83.5684 79.73C84.0047 79.325 84.4806 79.2514 84.9565 79.6563C85.1151 79.8036 85.2341 79.9876 85.3531 80.1349C85.5911 80.503 85.7893 80.8343 86.0273 81.2024C86.1463 81.3865 86.3049 81.5337 86.5429 81.5337C86.8601 81.5337 87.1774 81.6441 87.5344 81.6441C88.3672 81.681 89.0811 82.0491 89.7156 82.4908C90.1915 82.8221 90.3105 83.3006 90.0725 83.7792C89.9536 84.0001 89.8346 84.2577 89.6363 84.4418C89.2 84.8835 88.7241 85.2884 88.2482 85.6566C87.4154 86.3192 85.948 86.4664 84.9168 85.5093C84.6789 85.2885 84.4409 85.0308 84.203 84.7363C83.7667 84.1473 83.4098 83.4847 83.1718 82.8221C83.0132 82.3436 82.9339 81.865 82.9735 81.3497V81.3865Z" fill="#FDF9F3"/>
<path d="M93.1262 41.6297C92.9279 41.6297 92.5313 41.5929 92.1744 41.5561C91.7381 41.5193 91.3019 41.4825 90.8656 41.4089C90.5087 41.3721 90.1518 41.2985 89.8345 41.1513C89.2396 40.9305 88.843 40.452 88.843 39.8631C88.843 39.2006 89.1603 38.6118 89.8742 38.3173C90.1518 38.2069 90.469 38.1333 90.7467 38.1333C91.2226 38.1333 91.7381 38.1333 92.2141 38.2805C93.5625 38.575 94.9109 38.575 96.2593 38.3909C96.7749 38.3173 97.2905 38.2805 97.8457 38.2805C98.2423 38.2805 98.4406 38.4277 98.5595 38.7958C98.7578 39.3478 98.4406 40.1207 97.8457 40.4888C97.6077 40.636 97.3698 40.7832 97.1318 40.8568C95.9817 41.1881 94.8316 41.6665 93.6021 41.6297H93.1659H93.1262Z" fill="#FDF9F3"/>
<path d="M92.0549 88.4911C93.4033 88.896 94.7121 89.0433 96.0209 88.4175C96.933 88.9328 97.4486 89.7427 97.9245 90.5525C98.1625 90.9574 98.3211 91.3992 98.5194 91.8041C98.678 92.0986 98.8367 92.3931 99.035 92.6876C99.2333 92.9821 99.3522 93.3134 99.2729 93.6447C99.1936 94.1968 99.035 94.749 98.916 95.3012C98.916 95.3748 98.8763 95.4484 98.8367 95.522C98.5194 96.0742 98.1228 96.0374 97.7659 95.7797C97.6469 95.6693 97.5279 95.5588 97.4089 95.4484C96.9727 94.8594 96.4968 94.2704 96.1002 93.6815C95.4656 92.6139 94.7121 91.6569 93.8396 90.7366C93.2051 90.074 92.6498 89.3746 92.0549 88.712C92.0549 88.712 92.0549 88.6383 92.0549 88.5279V88.4911Z" fill="#FDF9F3"/>
<path d="M78.4918 50.3179C78.0159 50.3179 77.6193 50.2443 77.2227 50.0234C76.1916 49.4713 76.0726 48.2933 76.9451 47.5571C77.1831 47.373 77.421 47.2258 77.6986 47.1154C78.1349 46.9313 78.6108 46.7473 79.0867 46.6C79.7609 46.416 80.3558 46.1215 80.911 45.7534C81.4663 45.3852 82.0215 45.0908 82.5767 44.7595C82.656 44.7226 82.7353 44.6858 82.8147 44.649C83.3699 44.465 83.7268 44.649 83.8061 45.238C83.8061 45.6429 83.7665 46.011 83.5682 46.3423C83.3699 46.6736 83.1716 47.0049 82.9337 47.3362C82.6957 47.6675 82.4181 47.9988 82.1405 48.3301C81.5456 48.9927 80.8714 49.5449 80.0782 49.9866C79.6023 50.2443 79.047 50.2811 78.4918 50.3547V50.3179Z" fill="#FDF9F3"/>
<path d="M92.0946 91.105C93.0464 92.2091 93.9982 93.3133 94.9104 94.3806C94.9104 94.675 94.7517 94.8959 94.5534 95.0063C93.1654 95.8528 91.4997 95.8528 90.7858 94.1966C90.6668 93.9757 90.5875 93.7181 90.5478 93.4605C90.2702 92.4667 90.8255 91.473 91.8566 91.105C91.8963 91.105 91.9756 91.105 92.0946 91.105Z" fill="#FDF9F3"/>
<path d="M108.077 55.9867C108.077 56.5389 107.998 57.2015 107.681 57.8273C107.284 58.7108 106.451 59.1893 105.46 59.1525C104.984 59.1525 104.587 58.9684 104.27 58.6739C103.16 57.7537 102.723 56.5757 102.961 55.2137C103.041 54.6983 103.239 54.2198 103.477 53.7781C104.112 52.5633 105.42 52.2688 106.61 53.0418C107.483 53.594 107.84 54.4039 107.998 55.3241C107.998 55.5082 107.998 55.7291 108.038 56.0236L108.077 55.9867Z" fill="#FDF9F3"/>
<path d="M87.6129 28.7833C86.6611 28.7833 85.749 28.6361 84.8368 28.3416C84.2816 28.1576 83.6867 27.9367 83.1711 27.679C81.3864 26.8324 79.7604 25.7648 78.3327 24.4396C77.8568 23.9979 77.4205 23.4825 77.0239 22.9672C75.7548 21.3843 74.7633 19.6542 74.1684 17.7768C73.8908 16.8565 73.8115 15.8994 74.0098 14.9424C74.2874 13.4699 74.565 11.9975 75.1203 10.5986C75.2392 10.3042 75.3979 9.97285 75.5169 9.67836C75.9135 8.83171 76.548 8.16911 77.3412 7.65375C79.3242 6.32855 81.5451 5.70276 83.9643 5.70276C85.1541 5.70276 86.2645 5.96044 87.3353 6.43898C88.0889 6.80709 88.882 7.1384 89.6356 7.50651C90.9443 8.1323 92.0548 8.97895 93.0463 9.93604C94.6723 11.4453 95.9017 13.2122 96.7346 15.2C96.8536 15.4945 97.0122 15.7522 97.1312 16.0467C97.6864 17.3719 97.9244 18.7707 97.8451 20.2064C97.8451 20.9426 97.6071 21.642 97.2898 22.3046C96.7742 23.3721 96.219 24.4028 95.5845 25.3967C95.0292 26.2434 94.3154 26.906 93.4032 27.3845C91.5789 28.3416 89.5959 28.7833 87.5336 28.8938L87.6129 28.7833ZM92.2134 12.6969C92.0548 11.9607 92.0151 11.887 91.5392 11.4085C90.5081 10.3778 89.2786 9.60474 87.8112 9.16301C87.4146 9.05258 87.0181 8.94214 86.6215 8.7949C85.3524 8.35316 84.1229 8.4636 82.8935 8.7949C82.0606 9.01576 81.2278 9.34706 80.4346 9.75198C79.9984 9.97285 79.6414 10.2305 79.3638 10.5986C79.0465 11.0036 78.7293 11.4453 78.3723 11.8502C77.6981 12.6233 77.3015 13.5435 77.1429 14.5006C77.0636 15.0528 76.9843 15.6418 76.9843 16.1939C76.9843 17.3351 77.1429 18.4394 77.7378 19.4701C78.2137 20.3168 78.8482 21.053 79.5225 21.7892C80.038 22.3414 80.5933 22.8199 81.1088 23.3721C81.5847 23.8506 82.1003 24.2924 82.6952 24.5869C83.4884 24.9918 84.2816 25.3967 85.1144 25.7648C86.5818 26.3906 88.1682 26.6483 89.7942 26.5379C90.0322 26.5379 90.2305 26.5011 90.4288 26.4274C90.9443 26.2434 91.4599 26.0593 91.9358 25.8385C92.729 25.4703 93.4032 24.9182 93.8395 24.182C93.9981 23.8875 94.236 23.6298 94.355 23.2985C94.7913 22.4518 95.2275 21.5684 95.6241 20.7217C96.1397 19.5069 95.2672 18.1449 94.593 17.5928C93.8791 17.0406 93.0463 17.2615 92.729 18.0345C92.6497 18.1817 92.61 18.329 92.61 18.4762C92.5704 18.8075 92.5307 19.1388 92.491 19.4701C92.4117 20.3168 92.1341 21.053 91.4599 21.6052C90.984 22.0101 90.4288 22.3782 89.8735 22.7095C89.4373 22.9672 88.9614 23.0776 88.4458 22.9672C88.1682 22.9304 87.8906 22.8936 87.6129 22.8568C86.3835 22.6727 85.273 22.3046 84.2419 21.6788C82.8935 20.8321 82.021 19.7646 81.5451 18.3658C81.5451 18.2554 81.4658 18.1817 81.4261 18.0713C80.9898 16.5252 81.1485 15.0528 81.9813 13.6908C82.3383 13.1018 82.8538 12.6233 83.4487 12.2551C84.0436 11.887 84.7178 11.7398 85.4317 11.8502C86.6215 11.9975 87.7716 12.292 88.8424 12.8073C89.1597 12.9546 89.4373 13.1754 89.7545 13.3227C90.6667 13.7644 91.4996 13.5435 92.1341 12.7337L92.2134 12.6969Z" fill="#FDF9F3"/>
<path d="M9.60348 99.7924C7.46188 99.7924 5.28061 99.8292 3.13901 99.866C2.6631 99.866 2.18719 99.866 1.71128 99.866C0.521503 99.7556 -0.192363 98.8353 0.0455928 97.8046C0.164571 97.2892 0.48184 96.9211 0.957752 96.6634C1.27503 96.4794 1.63196 96.3321 1.9889 96.1849C3.17867 95.7432 4.3288 95.2278 5.3996 94.6388C6.90665 93.829 8.29472 92.8351 9.52416 91.6571C11.1899 90.0374 12.3003 88.16 12.7366 85.9146C12.9745 84.7366 13.0142 83.5218 12.8952 82.3071C12.7762 80.9083 12.5383 79.5462 12.221 78.1842C12.1417 77.8529 12.0624 77.5216 12.0227 77.1903C11.983 76.7486 11.9037 76.3069 11.9434 75.9019C12.0227 74.6136 13.2125 73.7669 14.6006 73.9878C15.0368 74.0614 15.4731 74.2086 15.8696 74.3559C16.5835 74.6504 17.2577 74.9448 17.9716 75.2761C21.184 76.8222 24.3964 78.2947 27.7278 79.5831C31.5747 81.0555 35.4613 82.3807 39.5066 83.301C42.6 84.0004 45.7728 84.4421 48.9455 84.4053C51.3251 84.4053 53.665 84.1476 55.9255 83.5218C56.4411 83.3746 56.9567 83.1905 57.4722 83.0065C57.8688 82.8592 58.2654 82.7488 58.7017 82.7856C59.9311 82.8961 60.8036 84.0372 60.4467 85.1415C60.2484 85.8041 60.2087 86.4667 60.2087 87.1293C60.2087 89.338 60.6847 91.5099 61.3589 93.6449C62.3107 96.5898 63.6988 99.3138 65.6421 101.78C65.9197 102.111 66.1576 102.443 66.5542 102.664C66.7922 102.811 66.9905 103.032 67.1888 103.289C67.744 104.026 68.4182 104.688 69.1717 105.24C69.4493 105.424 69.6873 105.645 69.9253 105.829C70.5995 106.455 70.6788 107.155 70.3218 107.964C70.0046 108.701 69.4097 109.106 68.5372 109.106C68.2199 109.106 67.9423 109.106 67.625 109.106C65.2058 109.106 62.7469 109.106 60.3277 109.29C58.9793 109.4 57.6309 109.584 56.3618 110.063C55.6083 110.32 54.8547 110.578 54.1409 110.909C53.3477 111.241 52.6338 111.646 51.9993 112.198C51.1268 113.008 49.8973 112.934 49.1835 112.014C46.0504 108.038 41.7275 105.572 36.8891 103.768C34.1526 102.737 31.3368 102.038 28.4416 101.486C25.3879 100.897 22.3341 100.492 19.2407 100.234C16.0283 99.9764 12.8159 99.8292 9.60348 99.8292V99.7924Z" fill="#FDF9F3"/>
</svg>
