<svg width="18" height="15" viewBox="0 0 18 15" fill="none" xmlns="http://www.w3.org/2000/svg">
<rect x="1.7998" y="3.5625" width="1.8" height="1.8" fill="#FDF9F3"/>
<rect x="12.5996" y="1.78125" width="1.8" height="1.8" fill="#FDF9F3"/>
<rect x="14.4004" y="3.5625" width="1.8" height="1.8" fill="#FDF9F3"/>
<rect x="10.7998" width="1.8" height="1.8" fill="#FDF9F3"/>
<rect x="9" width="1.8" height="1.8" fill="#FDF9F3"/>
<rect x="5.40039" width="1.8" height="1.8" fill="#FDF9F3"/>
<rect x="7.2002" width="1.8" height="1.8" fill="#FDF9F3"/>
<rect x="3.59961" y="1.78125" width="1.8" height="1.8" fill="#FDF9F3"/>
<rect x="14.4004" y="5.34375" width="1.8" height="1.8" fill="#FDF9F3"/>
<rect x="14.4004" y="7.125" width="1.8" height="1.8" fill="#FDF9F3"/>
<rect x="14.4004" y="8.90625" width="1.8" height="1.8" fill="#FDF9F3"/>
<rect x="1.7998" y="5.34375" width="1.8" height="1.8" fill="#FDF9F3"/>
<rect x="1.7998" y="7.125" width="1.8" height="1.8" fill="#FDF9F3"/>
<rect x="1.7998" y="8.90625" width="1.8" height="1.8" fill="#FDF9F3"/>
<rect x="3.59961" y="10.6875" width="1.8" height="1.8" fill="#FDF9F3"/>
<rect x="5.40039" y="12.4688" width="1.8" height="1.78125" fill="#FDF9F3"/>
<rect x="7.2002" y="12.4688" width="1.8" height="1.78125" fill="#FDF9F3"/>
<rect x="9" y="12.4688" width="1.8" height="1.78125" fill="#FDF9F3"/>
<rect x="10.7998" y="12.4688" width="1.8" height="1.78125" fill="#FDF9F3"/>
<rect x="12.5996" y="10.6875" width="1.8" height="1.8" fill="#FDF9F3"/>
<rect x="9" y="5.34375" width="1.8" height="1.8" fill="#FDF9F3"/>
<rect x="5.40039" y="7.125" width="1.8" height="1.8" fill="#FDF9F3"/>
<rect x="7.2002" y="7.125" width="1.8" height="1.8" fill="#FDF9F3"/>
<rect x="9" y="3.5625" width="1.8" height="1.8" fill="#FDF9F3"/>
</svg>
