<svg width="51" height="47" viewBox="0 0 51 47" fill="none" xmlns="http://www.w3.org/2000/svg">
<path d="M46.3638 33.3261L48.674 30.8867L44.0377 26.5102L46.3724 24.0449L44.0296 21.8333L46.3397 19.394L44.0216 17.2057L46.258 14.8442L43.9399 12.6559L41.7035 15.0174L39.4347 12.8757L37.1245 15.3151L34.7817 13.1036L32.4962 15.517L23.199 6.74072L25.46 4.35323L20.8484 0L18.5628 2.41344L20.881 4.60169L16.2361 9.50642L18.5296 11.6714L16.2195 14.1108L13.9013 11.9225L9.25651 16.8273L6.91372 14.6157L4.60359 17.0551L2.31013 14.8901L0 17.3295L9.29718 26.1058L6.96248 28.5712C7.8996 29.4558 8.81205 30.3171 9.72451 31.1785C10.3657 31.7837 10.9822 32.3657 11.6233 32.9217L13.9334 30.4824L11.6153 28.2941L13.9254 25.8547L9.28918 21.4782L13.934 16.5735L16.2275 18.7384L23.1824 11.3943L32.4796 20.1706L34.7897 17.7312L37.0585 19.8729L39.3687 17.4335L41.6868 19.6218L39.4013 22.0352L41.7194 24.2235L39.4093 26.6629L44.0702 31.0627L39.4254 35.9674L44.0863 40.3672L46.3964 37.9278L48.6899 40.0928L51 37.6534L46.3637 33.2769L46.3638 33.3261Z" fill="#FDF9F3"/>
<path d="M10.2092 39.8723C9.91735 39.5967 9.89278 39.4279 10.2079 39.095C11.5894 37.6353 12.9709 36.1756 14.3766 34.6902L12.0661 32.5078C11.9449 32.6359 11.7994 32.7409 11.6782 32.869C10.4421 34.1751 9.20605 35.4811 7.99428 36.8102C6.41887 38.4748 4.81923 40.165 3.24382 41.8296L2.92874 42.1625L7.50115 46.4814L12.0577 41.6669C11.4254 41.0696 10.8658 40.444 10.2092 39.8723Z" fill="#FDF9F3"/>
<path d="M30.5435 41.1845L28.2575 39.0252L25.9793 41.4323L30.5515 45.7509L39.6883 36.0968L37.4022 33.9375L30.5435 41.1845Z" fill="#FDF9F3"/>
<path d="M19.042 39.1467L16.8336 37.0618C16.7847 37.1135 16.7112 37.093 16.6867 37.1188C15.244 38.6424 13.7768 40.1429 12.3096 41.6433C12.2363 41.7208 12.1629 41.7982 12.1385 41.8731L14.3959 44.0043L16.7189 41.551L19.0254 43.7286L21.3239 41.3011L23.6304 43.4787L25.9289 41.0512L21.3159 36.6961L19.0174 39.1235L19.042 39.1467Z" fill="#FDF9F3"/>
</svg>
