<svg width="55" height="53" viewBox="0 0 55 53" fill="none" xmlns="http://www.w3.org/2000/svg">
<path d="M42.2173 33.4136C42.2173 33.8118 42.3059 34.1657 42.4389 34.5196C43.148 36.8201 43.8128 39.1206 44.5219 41.4211C44.8764 42.6598 45.2309 43.8986 45.5412 45.1373C45.7184 45.7124 45.7628 46.2876 45.7184 46.9069C45.6298 48.0572 44.8321 48.8977 43.6798 49.1189C43.1037 49.2074 42.5718 49.1189 42.0843 48.8093C41.5968 48.5438 41.1093 48.2341 40.7105 47.8802C39.5582 46.9512 38.4059 45.9779 37.2093 45.0488C35.4366 43.6331 33.6638 42.2174 31.8911 40.8017C31.8024 40.7133 31.6695 40.6248 31.5809 40.5805C31.2706 40.5805 31.1377 40.8017 31.0047 40.9787C29.8968 42.2617 28.7888 43.5889 27.6365 44.8276C25.9524 46.6857 24.224 48.5438 22.5399 50.3577C22.0081 50.9328 21.4319 51.4194 20.8558 51.9503C20.5012 52.26 20.1467 52.5254 19.7478 52.7024C18.0194 53.543 16.158 52.5255 15.9807 50.6231C15.9364 50.0037 15.9807 49.3844 16.0694 48.765C16.3796 46.553 16.9558 44.3852 17.5319 42.2617C17.9308 40.7133 18.3739 39.1649 18.8171 37.6164C18.9501 37.174 18.8614 36.8643 18.5512 36.5989C17.9751 36.1565 17.4433 35.6699 16.8228 35.2275C14.6955 33.6348 12.5239 32.0864 10.4409 30.4937C8.00342 28.6356 5.61022 26.6891 3.21702 24.7867C2.50793 24.2116 1.84315 23.5922 1.17837 22.9729C0.868143 22.7074 0.557912 22.3535 0.380638 22.0438C-0.594368 20.4954 0.424958 18.6373 2.06474 18.4603C2.46361 18.4161 2.90679 18.4161 3.30566 18.4603C4.54658 18.5488 5.83181 18.6816 7.07273 18.8143C8.40229 18.947 9.73184 19.0355 11.0171 19.1682C13.8535 19.3894 16.7342 19.5664 19.5705 20.053C20.5012 20.1857 21.4319 20.3627 22.4069 20.1857C22.4956 20.0088 22.6285 19.7876 22.7172 19.5664C25.2876 13.8151 27.7695 8.01961 30.0297 2.13564C30.1627 1.82596 30.2513 1.47203 30.4286 1.16235C30.9161 0.321784 31.6695 -0.0763818 32.6002 0.0120989C33.5309 0.10058 34.24 0.587228 34.5502 1.51628C34.7718 2.13564 34.8604 2.79925 34.9934 3.46285C35.5695 7.04632 36.4559 10.5856 37.2093 14.1248C37.2093 14.2133 37.2979 14.3018 37.3423 14.3902C37.6525 14.523 37.8298 14.3018 38.007 14.169C39.7798 13.0188 41.5968 11.8243 43.3696 10.7183C44.3446 10.0989 45.3639 9.52378 46.3389 8.9929C46.8707 8.72746 47.4026 8.46202 47.9787 8.32929C49.8401 7.79841 51.4799 9.12563 51.3469 11.0722C51.3469 11.5588 51.1696 12.0455 51.0367 12.4879C50.7264 13.3285 50.4162 14.169 50.0173 15.0096C48.998 17.2659 47.8457 19.4779 46.6491 21.6457C46.5162 21.9111 46.3389 22.2208 46.206 22.442C46.206 22.7517 46.4719 22.8844 46.6491 23.0171C47.6241 23.7692 48.5548 24.5213 49.5298 25.2734C50.7264 26.1582 51.923 27.043 53.1196 27.972C53.5185 28.2817 53.9617 28.6356 54.3162 28.9896C54.8481 29.5205 55.0696 30.1841 54.981 30.8919C54.8924 32.0421 54.0503 32.927 52.8094 33.1039C52.1889 33.1924 51.5685 33.2366 50.948 33.2366C49.3526 33.2366 47.7128 33.2366 46.1173 33.3251C44.9207 33.3251 43.7241 33.4578 42.5718 33.5463C42.4832 33.5463 42.3946 33.5906 42.2616 33.6348L42.2173 33.4136ZM44.7434 15.0538C44.5219 15.0096 44.3889 15.1866 44.2116 15.275C43.148 15.9386 42.0843 16.6465 41.065 17.3101C40.2673 17.841 39.4252 18.3719 38.5832 18.9027C38.0957 19.1682 37.6082 19.4779 37.0763 19.6548C35.215 20.23 33.9297 19.3009 33.4422 17.9295C33.3979 17.7525 33.3093 17.6198 33.3093 17.4428C33.2206 17.1331 33.1763 16.8235 33.0877 16.5138C32.6445 14.5229 32.2013 12.4879 31.8024 10.4971C31.8024 10.4086 31.6695 10.3643 31.5809 10.2316C31.4479 10.4971 31.3149 10.7183 31.2263 10.9395C30.7388 12.134 30.2513 13.3285 29.7195 14.5229C28.5672 17.2216 27.3706 19.876 26.174 22.5747C25.9524 23.1056 25.6422 23.6365 25.3763 24.1674C24.8444 25.0964 23.6035 25.4503 22.8501 25.1849C22.5842 25.0964 22.3183 25.0079 22.0524 24.9637C20.8115 24.7867 19.5705 24.6098 18.3296 24.4328C16.6012 24.2116 14.8728 24.0346 13.1444 23.8577C11.9034 23.725 10.6182 23.6807 9.37729 23.5922C9.24434 23.5922 9.11138 23.548 9.02274 23.7249C9.1557 23.9904 9.42161 24.1674 9.68752 24.3443C12.6125 26.6891 15.6705 28.9453 18.7285 31.1573C19.6149 31.8209 20.5012 32.5288 21.3433 33.2366C21.8308 33.6348 22.2296 34.1214 22.6285 34.6081C23.2933 35.4929 23.5592 36.5547 23.3819 37.6607C23.2933 38.2358 23.1603 38.8109 23.0274 39.3861C22.6285 40.9345 22.1853 42.4829 21.7865 44.0313C21.7421 44.2525 21.6092 44.4737 21.7421 44.7391C21.9637 44.7834 22.0524 44.6064 22.141 44.5179C22.8058 43.7658 23.5149 43.0138 24.1797 42.2617C25.3763 40.8902 26.5729 39.5188 27.7695 38.1473C28.1683 37.6607 28.6115 37.2183 29.099 36.8201C30.5615 35.5371 32.024 35.4487 33.6638 36.5547C34.0184 36.8201 34.4172 37.0856 34.7275 37.3952C36.2343 38.5897 37.7411 39.7842 39.2036 40.9787C39.3809 41.1114 39.5139 41.3326 39.8684 41.2884C39.7798 40.9345 39.6911 40.5805 39.5582 40.2709C39.0264 38.4128 38.4502 36.5989 37.9184 34.7408C37.6968 33.9887 37.5195 33.1924 37.5639 32.3518C37.6525 31.0246 38.2729 30.0513 39.5139 29.4762C40.0457 29.2108 40.6218 29.1223 41.2423 29.078C42.4389 28.9896 43.6798 28.9011 44.9207 28.8126C45.3196 28.8126 45.7628 28.8126 46.1616 28.7684C46.2946 28.7684 46.4275 28.6799 46.6048 28.6356C46.3832 28.4144 46.206 28.2817 45.9844 28.1048C45.098 27.3969 44.1673 26.6891 43.2809 25.937C42.7934 25.5388 42.3502 25.0522 41.9957 24.5655C41.2866 23.548 41.198 22.442 41.7298 21.2917C41.8627 20.9378 42.0843 20.6281 42.2616 20.2742C43.0593 18.77 43.8571 17.2658 44.6548 15.7617C44.7434 15.5847 44.9207 15.4078 44.7878 15.1866L44.7434 15.0538Z" fill="#FDF9F3"/>
</svg>
