<svg width="52" height="60" viewBox="0 0 52 60" fill="none" xmlns="http://www.w3.org/2000/svg">
<path d="M28.5784 40.2604C28.2048 40.4541 28.0387 40.7639 27.8727 41.035C27.3745 41.8482 26.9178 42.7002 26.4197 43.5522C24.6761 46.689 22.974 49.8645 21.2304 53.0013C20.3586 54.5503 19.4453 56.0219 18.532 57.5322C18.2829 57.997 17.9508 58.4229 17.6186 58.8102C17.328 59.1974 16.9129 59.4685 16.4147 59.5847C15.3354 59.8558 14.2975 59.3524 13.9239 58.3455C13.7993 57.9582 13.7163 57.5322 13.7163 57.145C13.7163 56.0994 13.7163 55.0925 13.7163 54.0469C13.7578 52.614 13.8824 51.1812 13.9654 49.7483C14.0899 46.96 14.256 44.1718 14.3805 41.3835C14.3805 40.8026 14.3805 40.2604 14.3805 39.6796C14.3805 38.905 14.256 38.7501 13.3842 38.5952C12.72 38.479 12.0557 38.3629 11.3915 38.3241C9.02519 38.208 6.65888 38.0918 4.25105 37.9756C3.66985 37.9756 3.08867 37.8982 2.50747 37.8207C2.17536 37.782 1.84323 37.6658 1.55263 37.4722C0.390229 36.8526 0.141164 35.4584 1.05448 34.529C1.30356 34.2579 1.67719 34.0256 2.0093 33.8319C2.5905 33.5221 3.2132 33.2898 3.83591 33.0574C5.95314 32.2829 8.07037 31.5471 10.1461 30.7726C10.8933 30.5015 11.5991 30.2304 12.3048 29.9593C12.4709 29.3397 12.3878 28.7975 12.3048 28.2167C12.0557 25.8931 11.6821 23.6083 11.267 21.3234C10.7273 18.4577 10.1876 15.5533 9.68943 12.6875C9.6064 12.3003 9.6064 11.8743 9.6064 11.487C9.64791 10.7512 10.063 10.2091 10.7688 9.89925C11.4745 9.58945 12.1388 9.70563 12.7615 10.1316C13.0936 10.364 13.3842 10.635 13.6333 10.9449C14.0899 11.487 14.5466 12.0679 14.9617 12.6488C17.0375 15.4371 19.0716 18.2253 21.1473 21.0136C21.2304 21.0911 21.2719 21.1685 21.3964 21.3234C21.521 21.246 21.6455 21.1685 21.7286 21.0911C22.8079 20.0455 23.8458 18.9224 24.9252 17.8768C27.2915 15.6694 29.6993 13.5008 32.0656 11.3321C35.1791 8.46639 38.2512 5.56194 41.1572 2.46386C41.4893 2.11533 41.8214 1.80552 42.1951 1.45698C42.4857 1.22463 42.7763 1.031 43.1499 0.953547C44.5199 0.643739 45.6822 1.57316 45.5577 2.88985C45.5577 3.19966 45.4747 3.47074 45.3501 3.74182C45.1841 4.24526 44.9765 4.7487 44.7689 5.25213C42.3196 10.7125 40.2024 16.289 38.0436 21.8656C37.7115 22.7563 37.3379 23.647 37.0058 24.5377C36.9228 24.77 36.8397 25.0024 36.7567 25.2348C37.0058 25.5058 37.2964 25.5833 37.587 25.6607C38.7909 26.048 39.9948 26.3965 41.2402 26.7451C43.6896 27.4034 46.1804 27.9843 48.6298 28.5265C49.0449 28.6039 49.4185 28.7201 49.7922 28.875C50.1243 29.0299 50.4979 29.1848 50.747 29.4172C51.7848 30.2304 51.7433 31.6633 50.664 32.4378C50.3319 32.6701 49.9167 32.8638 49.5016 32.9412C48.7128 33.1349 47.924 33.2898 47.1353 33.4059C46.3465 33.5221 45.5162 33.5608 44.7274 33.5996C42.9423 33.677 41.1157 33.7157 39.3306 33.7932C38.7909 33.7932 38.2512 33.8319 37.6285 33.9481C37.6285 34.1417 37.6285 34.2966 37.67 34.4515C38.0021 35.5359 38.3342 36.6202 38.7079 37.7045C39.4136 39.6408 40.1194 41.6159 40.8251 43.5522C41.0327 44.1718 41.1987 44.7914 41.3233 45.4497C41.3648 45.7983 41.3233 46.1468 41.2402 46.4953C40.9496 47.5022 39.8703 48.0831 38.7909 47.812C38.2927 47.6958 37.8776 47.4635 37.504 47.1537C36.9643 46.7277 36.4246 46.263 35.8849 45.7983C34.1413 44.2105 32.2732 42.7389 30.322 41.3835C29.9069 41.1124 29.4917 40.8026 29.035 40.5315C28.8275 40.4153 28.5784 40.2992 28.3708 40.2217L28.5784 40.2604Z" fill="#FDF9F3"/>
</svg>
