<svg width="51" height="75" viewBox="0 0 51 75" fill="none" xmlns="http://www.w3.org/2000/svg">
<path d="M46.7957 39.8626C46.7098 39.7998 46.6668 39.7683 46.5817 39.7908C45.4286 39.6248 44.2326 39.4274 43.0795 39.2613C42.7805 39.212 42.4815 39.1626 42.1825 39.1133C40.6007 38.7184 39.4397 37.6997 38.1109 36.9817C37.2966 36.5554 36.6931 35.8597 35.963 35.3257C35.4048 34.9173 34.8466 34.509 34.2883 34.1006C33.517 33.7057 33.0852 33.1357 32.779 32.3189C32.1644 30.4296 31.5928 28.5716 32.0406 26.2738C32.0828 26.2199 32.039 26.1033 32.0383 26.018C31.8984 24.73 32.3971 23.3162 32.7686 21.9788C33.6769 18.7475 35.0975 15.5521 36.4329 12.3791C36.7248 11.6611 36.8887 10.934 37.2235 10.2474C37.5583 9.56071 37.8932 8.87405 38.1429 8.20983C38.7267 6.77369 39.3964 5.40037 39.8952 3.98667C40.1449 3.32246 40.3096 2.68068 40.7732 2.08827C40.7263 1.6305 40.7224 1.20415 40.6333 0.800248C40.5006 0.279658 39.9025 0.180944 39.4381 0.688091C38.9736 1.19524 38.5092 1.70239 38.1735 2.30377C37.2096 4.13935 36.4158 5.93005 35.6228 7.80602C35.1639 8.91006 34.7058 10.0993 34.2468 11.2034C33.5374 12.8864 32.7849 14.5379 32.1606 16.1985C30.911 19.4343 29.5756 22.6073 27.6413 25.5963C26.5899 27.1985 25.5806 28.7468 23.9702 29.8554C23.5042 30.192 23.0389 30.6139 22.6587 31.0133C21.9422 31.9289 20.964 32.2296 20.0272 32.3912C18.1106 32.683 16.2362 32.9209 14.361 33.0735C13.6365 33.1364 12.9979 33.2621 12.2758 33.5808C11.2984 33.9667 10.3194 34.1822 9.42161 33.9489C8.60967 33.7783 7.75637 33.747 6.94522 33.6617C6.60406 33.6662 6.17701 33.6079 5.88037 33.8143C5.2863 34.142 4.81709 34.1375 4.26201 34.0702C3.57889 33.9939 2.85285 33.8862 2.12758 33.8638C1.53035 33.8504 0.976842 33.9536 0.341405 34.4204C0.393037 35.3898 0.613274 36.1437 1.67971 36.1617C2.02087 36.1572 2.2793 36.4309 2.156 36.9335C1.98977 37.4048 2.29036 37.6247 2.67447 37.6516C4.89479 37.9208 6.99024 38.5221 9.46032 38.1271C10.0989 38.0014 10.782 38.0777 11.2957 38.2841C12.3232 38.6969 13.4763 38.863 14.6286 38.9437C16.763 39.1501 18.5189 39.9264 19.6441 41.6811C19.9041 42.1254 20.1641 42.5697 20.1267 43.1352C20.0224 45.6843 19.6198 48.2693 18.4928 50.9172C17.9495 52.129 17.3641 53.3946 16.8209 54.6063C16.4447 55.4321 16.1957 56.1816 16.2036 57.0343C16.2084 57.5459 16.0429 58.1024 15.8345 58.6275C15.1274 60.5663 14.5492 62.5993 13.5431 64.4888C13.6735 64.7535 13.8039 65.0183 13.8492 65.3056C13.3887 66.2391 12.9703 67.1187 12.552 67.9983C12.1766 68.9094 11.8011 69.8204 11.4257 70.7315C11.0511 71.7278 10.5914 72.7466 10.2597 73.7743C10.0099 74.4386 10.1395 74.6181 10.6954 74.7706C10.8242 74.8649 11.0374 74.8514 11.2505 74.8379C11.7197 74.8424 12.0163 74.6359 12.2255 74.1961C12.352 74.0346 12.3925 73.8102 12.4761 73.6172C12.9358 72.5984 13.3104 71.6021 13.8131 70.6147C14.3165 69.7126 14.7349 68.833 15.0252 67.9444C15.3155 67.0558 15.9056 66.3018 15.9828 65.4267C16.3622 64.942 16.5706 64.4169 16.6509 63.8828C16.6868 63.1468 17.0224 62.5454 17.4002 61.8902C17.7358 61.2888 17.9434 60.6784 18.1081 60.0366C18.4374 58.7531 18.8518 57.4471 19.4372 56.1815C19.6042 55.7955 19.7291 55.4634 19.8961 55.0775C20.3972 53.9196 20.8553 52.7303 21.4415 51.5499C22.0277 50.3696 22.6998 49.2521 23.4148 48.166C23.7933 47.596 24.1711 46.9408 24.6793 46.5503C25.9486 45.4462 27.2608 44.3736 28.616 43.3324C29.2514 42.8656 30.0165 42.5783 30.7378 42.1744C31.417 41.8243 32.1399 41.5909 32.78 41.6358C33.5053 41.6582 34.2298 41.5953 34.9137 41.7569C35.5976 41.9184 36.408 41.9184 37.0076 42.1877C38.1209 42.6633 39.3997 42.5825 40.5957 42.7799C40.7667 42.8203 41.1078 42.8158 41.2343 42.6542C41.9946 41.8554 42.5934 42.0394 43.2773 42.2009C43.5334 42.2188 43.8316 42.1829 44.0877 42.2009C45.0261 42.2098 46.0488 42.1111 46.9037 42.313C47.9725 42.5867 49.0818 42.636 50.1912 42.6854C50.4473 42.7033 50.7018 42.5507 51 42.5148C50.9125 42.2814 50.9539 42.1423 50.8251 42.048C49.7484 40.9216 48.2088 40.4729 46.88 39.7549L46.7957 39.8626ZM5.22727 36.9783C5.22727 36.9783 5.22726 36.9783 5.26941 36.9245C5.31156 36.8706 5.39667 36.8482 5.48176 36.8257C5.43961 36.8796 5.3553 36.9873 5.27021 37.0097L5.22727 36.9783ZM5.78234 37.0456C5.69646 36.9828 5.56765 36.8885 5.52391 36.7719C5.6098 36.8347 5.7386 36.9289 5.86664 36.9379C5.86664 36.9379 5.82449 36.9918 5.78234 37.0456ZM13.5187 34.2359C14.1573 34.1102 14.6249 33.9442 15.052 34.0025C15.351 34.0519 15.4385 34.2852 15.2714 34.6712C14.675 34.743 14.0786 34.8149 13.5187 34.2359ZM19.0224 39.0243C19.4884 38.6877 19.6188 38.9525 19.6649 39.325L19.0224 39.0243ZM34.8178 36.0124C34.8178 36.0124 34.7741 35.8957 34.8163 35.8419C34.8592 35.8733 34.9443 35.8508 35.0302 35.9137C35.0302 35.9137 35.0731 35.9451 35.0739 36.0303C35.0739 36.0303 34.9459 36.0214 34.8608 36.0438L34.8178 36.0124Z" fill="#FDF9F3"/>
<path d="M15.9558 24.8617C16.0465 25.0164 16.1373 25.1711 16.228 25.3259C16.4537 25.579 16.7211 25.5087 16.9868 25.2602C17.1192 25.0914 17.2517 24.9226 17.4291 24.7866C17.2868 23.8864 17.2337 22.9627 16.6916 22.3016C16.8698 22.2547 17.0481 22.2078 17.2263 22.1609C17.8493 21.9077 18.2908 21.3451 18.196 20.7449C18.1494 20.5339 18.0578 20.2901 18.0112 20.0791C17.5958 18.6256 17.0913 17.1956 16.7651 15.7187C16.3015 13.876 16.0161 11.9865 15.5525 10.1438C15.1813 8.63405 14.676 7.11492 14.2607 5.66143C14.214 5.45044 14.0342 5.31914 13.8976 5.04251C13.4986 5.37073 13.1888 5.67551 12.8347 6.03655C13.0187 6.61326 13.2027 7.18997 13.3867 7.76668C13.5706 8.34339 13.7096 8.88727 13.8494 9.52024C14.0334 10.097 14.1724 10.6408 14.3122 11.2738C14.452 11.9068 14.5477 12.596 14.6875 13.229C14.7824 13.8292 15.0105 14.3496 15.1053 14.9498C15.1994 15.4608 15.4725 16.0141 15.1675 16.8534C14.9394 16.3329 14.7579 16.0235 14.6647 15.6015C14.067 13.7495 13.3801 11.9209 12.7825 10.0689C12.5061 9.15925 12.0531 8.47473 10.982 8.57791C10.5283 7.80429 10.6525 6.74462 9.84391 6.24295C9.53321 6.45864 9.22252 6.67433 8.91183 6.89002C9.05001 7.34482 9.23234 7.74337 9.19147 8.15598C9.06884 9.39381 9.65834 10.355 10.0246 11.3302C10.9862 13.8902 12.1252 16.3143 13.2191 18.7055C14.1316 20.7872 15.0441 22.869 16.0457 24.9273L15.9558 24.8617ZM17.1331 21.739C17.0889 21.7952 17.1797 21.95 17.0906 21.9734C17.0023 22.0859 16.869 22.1656 16.7357 22.2454C16.824 22.1328 16.8224 21.9546 16.9107 21.8421C16.9549 21.7858 16.999 21.7296 17.1331 21.739Z" fill="#FDF9F3"/>
<path d="M34.808 31.5846C34.9841 32.2209 35.1977 32.2925 35.7907 31.9654C36.2566 31.7145 36.7647 31.4097 37.2735 31.1902C39.139 30.3566 41.0474 29.5545 42.9153 28.9764C44.6982 28.4207 46.4367 27.6634 48.1315 26.7895C48.8944 26.4176 49.6564 25.9605 50.4614 25.5348C50.3273 24.8447 50.9576 23.953 50.1861 23.3885C48.7016 23.9934 47.2179 24.6835 45.7335 25.2885C44.207 25.9473 42.6376 26.5746 40.9832 27.2244C42.0756 25.6561 43.518 25.1049 44.7865 24.1728C44.3524 23.2632 44.1809 23.1377 43.3776 23.7337C42.0669 24.7196 40.7571 25.7905 39.4472 26.8615C38.7288 27.4351 38.0961 28.0714 37.4198 28.5912C36.4902 29.3485 35.5606 30.1058 34.7183 31.0962C34.7199 31.2664 34.6794 31.4905 34.723 31.607L34.808 31.5846Z" fill="#FDF9F3"/>
<path d="M33.9782 62.6403C33.6492 60.4763 33.3201 58.3123 32.9911 56.1482C32.9434 55.7636 32.764 55.4578 32.6726 55.1288C32.7599 55.0176 32.9361 54.9712 33.0678 54.8924C33.2028 55.1658 33.3815 55.3836 33.472 55.6246C33.742 56.1714 34.0119 56.7182 34.3255 57.2094C34.4589 57.3067 34.7256 57.5013 34.901 57.3669C35.1208 57.2649 35.4708 56.9081 35.5573 56.7089C35.6405 56.1574 35.7237 55.606 35.5871 55.1565C35.2702 54.3131 34.9097 53.5254 34.4611 52.7608C34.1459 52.0935 33.6989 51.505 33.2956 50.8609C32.7128 49.911 32.3054 48.8266 31.5036 48.0667C30.9734 48.0297 30.5782 48.266 30.2291 48.7109C30.1863 48.8545 30.1434 48.9982 30.1451 49.1743C30.5364 53.3077 31.0158 57.418 31.4516 61.5839C32.0263 61.6534 32.2938 61.936 32.3431 62.4967C32.3488 63.113 32.5307 63.683 32.7126 64.253C32.7595 64.5495 33.1127 64.5449 33.4198 64.3317C33.7705 64.0629 33.9888 63.7849 33.9855 63.4327C33.9831 63.1686 33.9362 62.872 33.8893 62.5755L33.9782 62.6403Z" fill="#FDF9F3"/>
<path d="M15.7939 42.2108C12.9866 43.5022 10.0952 44.8158 7.20473 46.2137C6.6602 46.4844 6.15805 46.7862 5.61431 47.1412C5.4056 47.3232 5.24003 47.6205 5.11528 47.7802C5.32867 48.1042 5.45655 48.2817 5.62758 48.5745C4.66641 49.2934 3.78842 49.9059 2.8665 50.3186C2.02853 50.7091 1.19136 51.184 0.354169 51.6588C0.103091 51.8097 -0.0632732 52.0227 0.0230228 52.2535C0.108538 52.3999 0.320375 52.5552 0.489062 52.5951C0.616163 52.6883 0.867249 52.5374 1.03437 52.4087C1.45336 52.2135 1.82998 51.9871 2.24897 51.7919C2.54241 51.672 2.87666 51.4147 3.17088 51.3792C3.8017 51.3392 4.34622 51.0685 4.93154 50.6602C7.19046 49.2179 9.49411 48.0597 11.8393 46.8481C13.4305 46.0049 14.9786 45.0464 16.7785 44.0212C16.4772 43.2979 16.8892 42.3438 15.9194 42.1353L15.7939 42.2108Z" fill="#FDF9F3"/>
</svg>
