<svg width="51" height="41" viewBox="0 0 51 41" fill="none" xmlns="http://www.w3.org/2000/svg">
<path d="M36.4563 18.6004V14.8803H32.7719V0H29.1262V3.72008H25.4418V11.1207H21.9125V14.8407H10.9369V11.1998H0V14.9199H3.64563V18.64H10.9369V22.36H14.5437V26.0801H10.8981V29.8398H7.29125V41H14.5825V37.2799H21.9125V33.5598H29.1262V37.2799H32.7719V41H43.7088V37.2799H40.1019V26.0801H47.3932V22.36H51V18.64H36.4175L36.4563 18.6004ZM14.6601 33.4807V29.8002H18.2669V33.4807H14.6601ZM18.3057 29.7606V26.0801H21.9513V29.7606H18.3057ZM32.8106 26.0801H21.9901V18.64H29.165V22.3205H32.8106V26.0801Z" fill="#FDF9F3"/>
</svg>
